<svg width="200" height="141" viewBox="0 0 200 141" fill="none" xmlns="http://www.w3.org/2000/svg">
<path d="M1.41098 27.2423C4.34505 27.0291 21.4125 27.266 31.71 28.4034C6.91719 42.1846 0.132324 61.8005 0.132324 61.8005C0.132324 61.8005 14.4853 56.5581 30.547 53.5312C26.2186 56.3241 15.8411 63.6042 10.4327 70.3008C16.7311 70.055 32.6593 69.1102 52.4087 70.4637C48.3414 73.6151 37.148 84.55 34.8102 89.816C42.1973 90.2781 60.7155 91.4865 65.4178 92.7482C64.2815 98.3519 63.9878 103.559 64.329 108.283C64.9876 117.34 71.8703 136.284 75.4067 141.49C79.0231 127.964 84.9506 116.001 89.0951 109.044C94.5241 118.072 104.267 122.452 108.8 124.013C105.845 97.7211 116.982 78.9966 128.953 68.2572C141.386 57.1031 156.389 59.976 159.228 60.2278C159.038 62.9586 157.57 68.4645 155.618 73.4551L152.049 82.5834L161.21 79.0707C168.431 76.3014 192.455 66.1602 198.498 51.9614C199.741 49.0441 200.092 46.4555 199.928 44.2252C199.733 41.5182 198.783 39.3353 197.769 37.73C192.102 28.7647 176.233 25.1424 165.633 23.6941C165.633 23.6319 165.642 23.5756 165.636 23.5105C165.592 22.8796 165.337 22.1718 164.924 21.4461C163.094 16.959 151.835 3.51545 121.225 0.752103C101.793 -0.998314 49.1157 0.0412764 1.41098 27.2423Z" fill="#00355F" stroke="white" stroke-width="1.45"/>
<path d="M155.623 27.0912C163.108 24.1708 161.1 23.7384 160.952 23.1549C160.8 22.5715 152.867 7.29161 120.848 4.48087C94.6099 2.1766 74.199 5.57081 61.5697 8.53556C45.5406 11.915 21.9196 20.6019 16.7902 23.9546C26.7939 23.4067 41.6987 24.6625 47.9317 25.2608C14.9389 39.0538 7.97607 55.8027 7.97607 55.8027C33.9734 46.02 57.3451 45.1225 58.2885 45.3624C47.9762 48.2709 32.4099 55.5777 21.1542 66.2164C46.0924 65.0554 57.6062 65.8047 63.0649 68.4999C63.0649 68.4999 51.1506 74.9241 42.9803 86.0219C53.254 86.8245 63.1509 86.7238 70.4995 89.9018C66.5686 104.412 68.8797 117.562 74.4986 127.931C85.1432 105.448 96.9299 86.9697 113.834 73.3247C105.343 81.5881 96.473 94.2705 91.6284 105.025C93.9602 109.296 98.7485 113.996 102.469 115.139C100.06 98.9175 109.891 81.0253 124.197 67.3034C128.166 63.4945 134.417 59.9759 139.564 58.1455C150.387 54.2952 159.139 55.2074 162.379 56.0012C167.576 57.2777 159.652 75.0366 159.652 75.0366C168.514 71.6365 189.488 62.0669 194.508 50.2731C203.491 29.1674 155.623 27.0941 155.623 27.0941V27.0912Z" fill="#231F20"/>
<path d="M113.087 62.1794C119.388 48.4308 127.561 40.9404 134.204 36.8709C125.565 39.0478 122.726 34.1668 118.142 29.1347C114.282 24.9023 100.455 10.5406 67.0732 22.9653C55.5476 27.254 40.7911 34.5755 30.8823 43.0196C48.3918 38.4762 66.9634 39.6165 77.5131 40.9048C67.0762 43.7067 57.0398 47.5778 41.9867 59.5227C41.9867 59.5227 63.9048 59.5967 76.8693 66.7879C68.9749 69.1188 57.3839 76.4226 55.957 81.3777C55.957 81.3777 72.7485 82.752 79.032 85.5064C73.2054 93.3877 73.6593 104.491 75.6945 110.234C88.5997 85.9655 118.113 62.289 133.023 56.4009C133.964 56.0307 134.815 55.6249 135.604 55.1984C125.701 57.2924 117.065 60.6156 113.093 62.1853L113.087 62.1794Z" fill="white"/>
<path d="M187.37 41.2871C191.203 48.5939 176.835 58.9631 171.62 62.0374C172.264 58.9009 174.159 52.9388 169.78 48.8575C166.404 45.712 155.362 40.9732 139.013 48.0904C139.013 48.0904 154.597 44.086 161.503 50.1903C161.503 50.1903 140.535 47.9512 123.209 54.3694C123.209 54.3694 124.031 46.5976 137.752 38.1802C145.628 33.3466 145.175 37.499 157.771 30.6188C160.785 28.972 183.309 33.5421 187.37 41.2871Z" fill="#E9D666"/>
<path d="M149.776 20.5369C146.358 19.2425 143.142 18.8486 143.142 18.8486C150.067 25.1543 146.536 32.5647 136.675 28.1427C123.992 22.4561 105.02 10.3483 75.4004 16.3726C69.7666 17.5188 64.6906 19.2307 59.9676 20.7886C53.6515 19.8083 45.0065 19.5743 38.7349 19.8645C42.4403 17.5691 58.1312 10.7689 88.5103 7.72119C107.634 6.11294 126.947 8.08549 141.629 14.1453C149.082 17.2196 152.674 21.6357 149.776 20.5369Z" fill="white"/>
<path opacity="0.2" d="M55.9507 81.3749C55.9507 81.3749 66.257 79.6245 75.9938 79.0321C79.0614 78.8751 86.0153 78.7271 86.0153 78.7271C86.0153 78.7271 81.681 81.5674 78.827 85.4888C72.7215 83.2438 55.9507 81.3749 55.9507 81.3749Z" fill="#00355F"/>
<path opacity="0.2" d="M41.9834 59.5198C41.9834 59.5198 57.707 57.7812 71.8226 60.3224C79.8564 61.7707 86.6353 65.1324 86.6353 65.1324C86.6353 65.1324 81.4466 64.9724 76.5752 66.7525C63.1805 59.3421 41.9864 59.5198 41.9864 59.5198H41.9834Z" fill="#00355F"/>
<path opacity="0.2" d="M30.8823 43.0199C30.8823 43.0199 44.9208 37.0193 70.7727 36.6373C78.9371 36.5158 89.0209 39.22 89.0209 39.22C89.0209 39.22 82.7107 39.4924 77.2342 41.0029C50.5427 37.5436 30.8823 43.0229 30.8823 43.0229V43.0199Z" fill="#00355F"/>
</svg>
